<svg width="19" height="21" viewBox="0 0 19 21" fill="none" xmlns="http://www.w3.org/2000/svg">
<path opacity="0.4" d="M13.5164 0.916626H5.48458C2.57125 0.916626 0.875 2.62246 0.875 5.54538V15.445C0.875 18.4158 2.57125 20.0833 5.48458 20.0833H13.5164C16.4767 20.0833 18.125 18.4158 18.125 15.445V5.54538C18.125 2.62246 16.4767 0.916626 13.5164 0.916626Z" fill="url(#paint0_linear_56_980)"/>
<path fill-rule="evenodd" clip-rule="evenodd" d="M5.74278 5.37268V5.38226C5.32974 5.38226 4.99528 5.71768 4.99528 6.12976C4.99528 6.54185 5.32974 6.87726 5.74278 6.87726H8.60724C9.02028 6.87726 9.3557 6.54185 9.3557 6.11922C9.3557 5.7081 9.02028 5.37268 8.60724 5.37268H5.74278ZM13.2561 11.209H5.74278C5.32974 11.209 4.99528 10.8736 4.99528 10.4615C4.99528 10.0494 5.32974 9.71302 5.74278 9.71302H13.2561C13.6682 9.71302 14.0036 10.0494 14.0036 10.4615C14.0036 10.8736 13.6682 11.209 13.2561 11.209ZM13.2563 15.5885H5.74293C5.45543 15.6268 5.17751 15.483 5.02418 15.2435C4.87085 14.9943 4.87085 14.678 5.02418 14.4385C5.17751 14.1893 5.45543 14.0551 5.74293 14.0839H13.2563C13.6386 14.1222 13.9271 14.448 13.9271 14.841C13.9271 15.2233 13.6386 15.5501 13.2563 15.5885Z" fill="url(#paint1_linear_56_980)"/>
<defs>
<linearGradient id="paint0_linear_56_980" x1="-1.05597" y1="0.916629" x2="18.4615" y2="1.33892" gradientUnits="userSpaceOnUse">
<stop stop-color="#FB4A4A"/>
<stop offset="1" stop-color="#2027CC"/>
</linearGradient>
<linearGradient id="paint1_linear_56_980" x1="3.89115" y1="5.37268" x2="14.1811" y2="5.59278" gradientUnits="userSpaceOnUse">
<stop stop-color="#FB4A4A"/>
<stop offset="1" stop-color="#2027CC"/>
</linearGradient>
</defs>
</svg>
