<svg width="26" height="26" viewBox="0 0 26 26" fill="none" xmlns="http://www.w3.org/2000/svg">
<circle cx="13" cy="13" r="13" fill="white"/>
<path d="M17.9711 7.28859L17.9711 7.28859L17.9692 7.28641C17.5677 6.83279 16.9043 6.75812 16.4358 7.09539L16.4353 7.09572C15.9373 7.45316 15.7683 8.11666 16.0469 8.66837L16.0482 8.6711C16.1101 8.79596 16.2102 8.92301 16.3297 9.04248L16.3315 9.04426C17.768 10.4982 18.3448 12.2735 17.8344 14.3294L17.8343 14.3295C17.3469 16.2894 16.0919 17.5916 14.2447 18.1773L14.2441 18.1775C12.4435 18.7457 10.7475 18.3827 9.29409 17.1611C8.04128 16.1106 7.39967 14.6968 7.37762 13.0317C7.35863 11.7029 7.80445 10.528 8.62356 9.5252C8.69482 9.43739 8.77449 9.36624 8.83187 9.31544C8.83689 9.31099 8.84175 9.30669 8.84646 9.30253C8.9028 9.25268 8.93786 9.22167 8.96819 9.1882L8.96817 9.18818L8.97117 9.18495C9.30094 8.82898 9.38927 8.42543 9.24532 7.95198C9.09967 7.48526 8.79153 7.22026 8.32775 7.12616C7.98915 7.05821 7.68292 7.14281 7.38112 7.38516L7.37991 7.38612C6.7777 7.8659 6.3551 8.51596 5.96112 9.25146C5.29911 10.4885 5.00066 11.824 5.04817 13.2448L5.04819 13.2453C5.10407 14.9779 5.65253 16.5167 6.6871 17.8675C7.66932 19.1469 8.89571 20.0439 10.3795 20.4968L10.3799 20.4969C12.9122 21.2721 15.2524 20.8673 17.3723 19.2076L17.3725 19.2075C18.7445 18.1347 19.6464 16.7092 20.0943 14.9676L20.0947 14.9658C20.263 14.3235 20.3362 13.6622 20.3392 12.9821C20.3077 10.8173 19.5665 8.97535 18.1078 7.44387L18.3975 7.168L18.1086 7.4447C18.0773 7.41197 18.026 7.35224 17.995 7.31625C17.9836 7.30291 17.9749 7.29283 17.9711 7.28859Z" fill="#C91D1D" stroke="white" stroke-width="0.8"/>
<path d="M11.1121 10.6563C11.115 11.4967 11.7268 12.1934 12.523 12.2728C13.3484 12.3584 14.0861 11.8022 14.25 10.9649C14.2734 10.8458 14.2764 10.7235 14.2764 10.6013M11.1121 10.6563C11.1062 8.39502 11.1062 7.60039 11.1121 5.33909C11.1121 4.7371 11.3843 4.26956 11.8731 3.96398C12.3825 3.64312 12.9269 3.6309 13.448 3.93037C13.9807 4.23595 14.2676 4.72182 14.2705 5.36354M11.1121 10.6563L11.5121 10.6553C11.5121 10.6552 11.5121 10.6552 11.5121 10.6552C11.5144 11.3041 11.9839 11.8171 12.5627 11.8748L12.5642 11.875C13.1764 11.9384 13.7319 11.5297 13.8575 10.8881L13.8575 10.8878C13.8728 10.81 13.8763 10.7216 13.8764 10.6023M11.1121 10.6563L11.5121 10.6549L13.8764 10.6023M14.2705 5.36354C14.2724 6.08131 14.2719 6.50094 14.2712 7.00303C14.2709 7.28757 14.2705 7.59858 14.2705 8.00534V8.00539C14.2705 9.11461 14.2705 9.49207 14.2764 10.6013M14.2705 5.36354L13.8705 5.36536C13.8705 5.36524 13.8705 5.36512 13.8705 5.36499M14.2705 5.36354L13.8705 5.36458C13.8705 5.36472 13.8705 5.36486 13.8705 5.36499M14.2764 10.6013L13.8764 10.6034C13.8764 10.6031 13.8764 10.6027 13.8764 10.6023M14.2764 10.6013H13.8764C13.8764 10.6017 13.8764 10.602 13.8764 10.6023M13.8764 10.6023C13.8705 9.4929 13.8705 9.11454 13.8705 8.00534C13.8705 7.59755 13.8709 7.28623 13.8712 7.00165C13.8719 6.50025 13.8724 6.08185 13.8705 5.36499M13.8764 10.6023L11.5121 5.34013L11.5121 5.33909C11.5121 4.87805 11.7106 4.53727 12.0852 4.30316L12.0863 4.30243L12.0863 4.30242C12.471 4.06008 12.8568 4.05195 13.2486 4.27717L13.2489 4.27734C13.6562 4.51093 13.8681 4.8642 13.8705 5.36499" fill="#C91D1D" stroke="white" stroke-width="0.8"/>
</svg>
