<svg width="42" height="43" viewBox="0 0 42 43" fill="none" xmlns="http://www.w3.org/2000/svg">
<path fill-rule="evenodd" clip-rule="evenodd" d="M15.8724 36.9484V31.4932C15.8724 30.1057 16.9747 28.9783 18.3403 28.969H23.3429C24.7151 28.969 25.8275 30.0991 25.8275 31.4932V36.9653C25.8271 38.1434 26.7526 39.1062 27.9119 39.1338H31.2469C34.5715 39.1338 37.2666 36.3957 37.2666 33.018V17.4996C37.2488 16.1709 36.6347 14.9231 35.5991 14.1114L24.1933 4.77664C22.1951 3.15128 19.3547 3.15128 17.3565 4.77664L6.00076 14.1283C4.96117 14.9367 4.34606 16.1866 4.33325 17.5166V33.018C4.33325 36.3957 7.02837 39.1338 10.353 39.1338H13.688C14.876 39.1338 15.8391 38.1554 15.8391 36.9484" fill="url(#paint0_linear_450_958)"/>
<defs>
<linearGradient id="paint0_linear_450_958" x1="0.646685" y1="3.55762" x2="37.9079" y2="4.38687" gradientUnits="userSpaceOnUse">
<stop stop-color="#FB4A4A"/>
<stop offset="1" stop-color="#2027CC"/>
</linearGradient>
</defs>
</svg>
