<svg width="25" height="25" viewBox="0 0 25 25" fill="none" xmlns="http://www.w3.org/2000/svg">
<path d="M6.7709 7.29165C8.29314 5.76941 9.99333 4.6031 11.1433 3.89674C11.9815 3.38191 13.0186 3.38191 13.8568 3.89674C15.0068 4.6031 16.707 5.76941 18.2293 7.29165C21.5296 10.5921 21.3543 12.5 21.3543 15.625C21.3543 17.0935 21.2392 18.3321 21.1173 19.2325C20.989 20.1798 20.1627 20.8333 19.2068 20.8333H17.7084C16.5578 20.8333 15.6251 19.9006 15.6251 18.75V16.6667C15.6251 15.8378 15.2958 15.043 14.7098 14.457C14.1237 13.8709 13.3289 13.5417 12.5001 13.5417C11.6713 13.5417 10.8765 13.8709 10.2904 14.457C9.7043 15.043 9.37506 15.8378 9.37506 16.6667V18.75C9.37506 19.9006 8.44232 20.8333 7.29173 20.8333H5.79335C4.83738 20.8333 4.01116 20.1798 3.88286 19.2324C3.76093 18.3321 3.64591 17.0935 3.64591 15.625C3.64591 12.5 3.47049 10.5921 6.7709 7.29165Z" stroke="#B1BBBF" stroke-width="1.5" stroke-linecap="round" stroke-linejoin="round"/>
</svg>
