<svg width="23" height="23" viewBox="0 0 23 23" fill="none" xmlns="http://www.w3.org/2000/svg">
<path fill-rule="evenodd" clip-rule="evenodd" d="M8.17598 2.81437C10.2698 1.59776 12.8434 1.61903 14.9176 2.87007C16.9714 4.14658 18.2196 6.42479 18.208 8.87551C18.1602 11.3101 16.8217 13.5987 15.1487 15.3679C14.183 16.3936 13.1028 17.3006 11.93 18.0703C11.8092 18.1402 11.6769 18.1869 11.5396 18.2083C11.4075 18.2027 11.2788 18.1636 11.1651 18.0947C9.37466 16.9381 7.80387 15.4617 6.52832 13.7367C5.46098 12.2967 4.8546 10.557 4.79151 8.75378C4.79012 6.29836 6.08215 4.03097 8.17598 2.81437ZM9.38594 9.76987C9.73815 10.6382 10.5695 11.2046 11.4918 11.2046C12.0961 11.2089 12.6769 10.9669 13.1049 10.5324C13.5329 10.0979 13.7725 9.50715 13.7704 8.89165C13.7736 7.95216 13.2205 7.10334 12.3693 6.74153C11.5181 6.37972 10.5368 6.57629 9.88347 7.23946C9.23015 7.90262 9.03374 8.90157 9.38594 9.76987Z" fill="url(#paint0_linear_56_994)"/>
<defs>
<linearGradient id="paint0_linear_56_994" x1="3.28964" y1="1.91663" x2="18.471" y2="2.21719" gradientUnits="userSpaceOnUse">
<stop stop-color="#FB4A4A"/>
<stop offset="1" stop-color="#2027CC"/>
</linearGradient>
</defs>
</svg>
