<svg width="43" height="43" viewBox="0 0 43 43" fill="none" xmlns="http://www.w3.org/2000/svg">
<path d="M36.9597 28.6647C36.8203 28.4967 36.6834 28.3288 36.5491 28.1667C34.7014 25.9319 33.5836 24.5831 33.5836 18.2565C33.5836 14.9811 32.8 12.2936 31.2555 10.278C30.1167 8.78896 28.5773 7.65937 26.5482 6.82457C26.5221 6.81005 26.4988 6.79099 26.4793 6.7683C25.7495 4.32436 23.7524 2.6875 21.4999 2.6875C19.2474 2.6875 17.2511 4.32436 16.5213 6.76578C16.5018 6.78764 16.4788 6.80609 16.4533 6.82037C11.7182 8.76965 9.41706 12.5095 9.41706 18.254C9.41706 24.5831 8.30091 25.9319 6.45157 28.1642C6.3172 28.3262 6.1803 28.4909 6.04089 28.6622C5.68077 29.0965 5.4526 29.6249 5.38339 30.1848C5.31418 30.7447 5.40682 31.3128 5.65036 31.8217C6.16855 32.9135 7.27294 33.5912 8.53355 33.5912H34.4755C35.7302 33.5912 36.827 32.9143 37.3469 31.8276C37.5915 31.3185 37.685 30.75 37.6164 30.1894C37.5478 29.6289 37.3199 29.0997 36.9597 28.6647Z" fill="url(#paint0_linear_450_978)"/>
<path d="M21.4999 40.3125C22.7135 40.3115 23.9042 39.9821 24.9457 39.3592C25.9873 38.7362 26.8408 37.843 27.4157 36.7742C27.4428 36.723 27.4562 36.6657 27.4546 36.6078C27.453 36.5498 27.4364 36.4933 27.4065 36.4437C27.3765 36.3941 27.3343 36.3531 27.2838 36.3246C27.2334 36.2961 27.1764 36.2812 27.1184 36.2813H15.883C15.825 36.281 15.7679 36.2959 15.7173 36.3243C15.6668 36.3527 15.6244 36.3937 15.5944 36.4433C15.5644 36.493 15.5477 36.5496 15.546 36.6075C15.5444 36.6655 15.5578 36.723 15.5849 36.7742C16.1598 37.8429 17.0132 38.736 18.0545 39.3589C19.0959 39.9819 20.2864 40.3114 21.4999 40.3125Z" fill="url(#paint1_linear_450_978)"/>
<defs>
<linearGradient id="paint0_linear_450_978" x1="1.74796" y1="2.6875" x2="38.2619" y2="3.60435" gradientUnits="userSpaceOnUse">
<stop stop-color="#FB4A4A"/>
<stop offset="1" stop-color="#2027CC"/>
</linearGradient>
<linearGradient id="paint1_linear_450_978" x1="14.2128" y1="36.2813" x2="27.6257" y2="37.2338" gradientUnits="userSpaceOnUse">
<stop stop-color="#FB4A4A"/>
<stop offset="1" stop-color="#2027CC"/>
</linearGradient>
</defs>
</svg>
