<svg width="43" height="43" viewBox="0 0 43 43" fill="none" xmlns="http://www.w3.org/2000/svg">
<path opacity="0.4" d="M21.4999 3.58331C16.8058 3.58331 12.9895 7.39956 12.9895 12.0937C12.9895 16.6983 16.5908 20.425 21.2849 20.5862C21.4283 20.5683 21.5716 20.5683 21.6791 20.5862C21.7149 20.5862 21.7328 20.5862 21.7687 20.5862C21.7866 20.5862 21.7866 20.5862 21.8045 20.5862C26.3912 20.425 29.9924 16.6983 30.0103 12.0937C30.0103 7.39956 26.1941 3.58331 21.4999 3.58331Z" fill="url(#paint0_linear_450_981)"/>
<path d="M30.6034 25.3519C25.6046 22.0194 17.4526 22.0194 12.418 25.3519C10.1426 26.8748 8.88843 28.9352 8.88843 31.139C8.88843 33.3427 10.1426 35.3852 12.4001 36.8902C14.9084 38.5744 18.205 39.4165 21.5017 39.4165C24.7984 39.4165 28.095 38.5744 30.6034 36.8902C32.8609 35.3673 34.115 33.3248 34.115 31.1032C34.0971 28.8994 32.8609 26.8569 30.6034 25.3519Z" fill="url(#paint1_linear_450_981)"/>
<defs>
<linearGradient id="paint0_linear_450_981" x1="11.0842" y1="3.58332" x2="30.3402" y2="4.04673" gradientUnits="userSpaceOnUse">
<stop stop-color="#FB4A4A"/>
<stop offset="1" stop-color="#2027CC"/>
</linearGradient>
<linearGradient id="paint1_linear_450_981" x1="6.06456" y1="22.8525" x2="34.5822" y2="23.8967" gradientUnits="userSpaceOnUse">
<stop stop-color="#FB4A4A"/>
<stop offset="1" stop-color="#2027CC"/>
</linearGradient>
</defs>
</svg>
