<svg width="19" height="21" viewBox="0 0 19 21" fill="none" xmlns="http://www.w3.org/2000/svg">
<path opacity="0.4" d="M17.6252 12.144C16.7183 11.619 16.4044 10.4867 16.9168 9.58844C17.085 9.29842 17.3296 9.05731 17.6252 8.88993C18.0747 8.63855 18.4029 8.22329 18.5374 7.73583C18.672 7.24836 18.6018 6.72878 18.3424 6.29179L17.704 5.17587C17.4459 4.73814 17.0195 4.41846 16.519 4.2874C16.0185 4.15635 15.4851 4.22469 15.0364 4.47735C14.5864 4.73041 14.0516 4.79898 13.5497 4.66798C13.0478 4.53698 12.6199 4.21715 12.3601 3.77884C12.1901 3.488 12.0997 3.15945 12.0977 2.82477C12.1001 2.31948 11.8956 1.83411 11.5296 1.47602C11.1636 1.11793 10.6662 0.916621 10.1474 0.916626H8.8617C7.78312 0.916616 6.9074 1.76574 6.90259 2.81625C6.90625 3.49757 6.535 4.12862 5.92965 4.47007C5.32429 4.81151 4.57756 4.81104 3.97266 4.46883C3.51986 4.20589 2.97705 4.13268 2.46793 4.26588C1.9588 4.39908 1.52672 4.72734 1.27013 5.17587L0.657906 6.2492C0.122802 7.15998 0.443198 8.32069 1.37508 8.84733C2.30903 9.37714 2.62603 10.5435 2.08351 11.454C1.91758 11.7435 1.67231 11.9824 1.37508 12.144C0.925661 12.3954 0.597441 12.8106 0.462884 13.2981C0.328327 13.7856 0.398498 14.3051 0.657906 14.7421L1.27013 15.8325C1.81409 16.7421 3.01164 17.0509 3.94642 16.5225C4.88219 16.0063 6.07014 16.3173 6.61397 17.221C6.78705 17.5106 6.87763 17.84 6.87635 18.1751C6.87633 18.6841 7.08513 19.1721 7.45633 19.5304C7.82753 19.8887 8.33034 20.0878 8.85295 20.0832H10.1386C11.2206 20.0832 12.0977 19.2289 12.0977 18.1751C12.0907 17.6669 12.2931 17.1771 12.6596 16.8153C13.0262 16.4535 13.5263 16.2499 14.0481 16.2499C14.3923 16.2478 14.7306 16.3361 15.0277 16.5055C15.9628 17.0266 17.1545 16.7146 17.6952 15.8069L18.3424 14.7166C18.8649 13.8122 18.5456 12.6668 17.6252 12.144Z" fill="url(#paint0_linear_56_1018)"/>
<path d="M9.49984 12.8959C10.823 12.8959 11.8957 11.8233 11.8957 10.5001C11.8957 9.1769 10.823 8.10425 9.49984 8.10425C8.17665 8.10425 7.104 9.1769 7.104 10.5001C7.104 11.8233 8.17665 12.8959 9.49984 12.8959Z" fill="url(#paint1_linear_56_1018)"/>
<defs>
<linearGradient id="paint0_linear_56_1018" x1="-1.64225" y1="0.916629" x2="18.9584" y2="1.38712" gradientUnits="userSpaceOnUse">
<stop stop-color="#FB4A4A"/>
<stop offset="1" stop-color="#2027CC"/>
</linearGradient>
<linearGradient id="paint1_linear_56_1018" x1="6.56762" y1="8.10425" x2="11.9885" y2="8.23457" gradientUnits="userSpaceOnUse">
<stop stop-color="#FB4A4A"/>
<stop offset="1" stop-color="#2027CC"/>
</linearGradient>
</defs>
</svg>
