<svg width="25" height="26" viewBox="0 0 25 26" fill="none" xmlns="http://www.w3.org/2000/svg">
<path d="M14.4038 4.49646V7.05665" stroke="#B1BBBF" stroke-width="1.5" stroke-linecap="round" stroke-linejoin="round"/>
<path d="M14.4038 18.7889V20.9301" stroke="#B1BBBF" stroke-width="1.5" stroke-linecap="round" stroke-linejoin="round"/>
<path d="M14.4038 15.1544V10.0541" stroke="#B1BBBF" stroke-width="1.5" stroke-linecap="round" stroke-linejoin="round"/>
<path fill-rule="evenodd" clip-rule="evenodd" d="M19.4503 21.1586C21.3452 21.1586 22.8801 19.6167 22.8801 17.713V14.9704C21.6262 14.9704 20.6163 13.9559 20.6163 12.6962C20.6163 11.4366 21.6262 10.421 22.8801 10.421L22.879 7.67721C22.879 5.77357 21.3431 4.23169 19.4492 4.23169H5.51095C3.61708 4.23169 2.08116 5.77357 2.08116 7.67721L2.08008 10.5103C3.33398 10.5103 4.34383 11.4366 4.34383 12.6962C4.34383 13.9559 3.33398 14.9704 2.08008 14.9704V17.713C2.08008 19.6167 3.61491 21.1586 5.50987 21.1586H19.4503Z" stroke="#B1BBBF" stroke-width="1.5" stroke-linecap="round" stroke-linejoin="round"/>
</svg>
